<?xml version="1.0" standalone="no"?><!DOCTYPE svg PUBLIC "-//W3C//DTD SVG 1.1//EN" "http://www.w3.org/Graphics/SVG/1.1/DTD/svg11.dtd"><svg t="1654315084932" class="icon" viewBox="0 0 1024 1024" version="1.1" xmlns="http://www.w3.org/2000/svg" p-id="2164" xmlns:xlink="http://www.w3.org/1999/xlink" width="200" height="200"><defs><style type="text/css">@font-face { font-family: feedback-iconfont; src: url("//at.alicdn.com/t/font_1031158_u69w8yhxdu.woff2?t=1630033759944") format("woff2"), url("//at.alicdn.com/t/font_1031158_u69w8yhxdu.woff?t=1630033759944") format("woff"), url("//at.alicdn.com/t/font_1031158_u69w8yhxdu.ttf?t=1630033759944") format("truetype"); }
</style></defs><path d="M250.985026 333.640205a40.881231 40.881231 0 0 0 61.229948 35.393641 40.907487 40.907487 0 0 0-20.40123-76.274872c-22.554256 0-40.828718 18.300718-40.828718 40.881231zM568.97641 545.030564a31.980308 31.980308 0 1 0 63.960616 0 31.980308 31.980308 0 0 0-63.960616 0zM459.250872 333.640205a40.854974 40.854974 0 1 0 40.828718-40.881231c-22.554256 0-40.828718 18.300718-40.828718 40.881231z" fill="#5DE466" p-id="2165"></path><path d="M839.601231 26.912821H184.372513c-86.751179 0-157.065846 70.629744-157.065846 157.774769v655.123692c0 87.145026 70.340923 157.774769 157.065846 157.774769h655.228718c86.777436 0 157.065846-70.603487 157.065846-157.774769V184.68759c0-87.145026-70.314667-157.774769-157.065846-157.774769zM391.062974 677.23159c-36.680205 0-66.19241-7.483077-102.925128-14.782359l-102.741333 51.593846 29.407179-88.510359c-73.570462-51.488821-117.602462-117.812513-117.602461-198.656 0-139.999179 132.332308-250.197333 293.888-250.197333 144.515282 0 271.097436 88.064 296.513641 206.611692a252.717949 252.717949 0 0 0-28.278154-1.706667c-139.605333 0-249.882256 104.290462-249.882256 232.841846 0 21.372718 3.334564 42.010256 9.084717 61.650052-9.084718 0.682667-18.221949 1.155282-27.464205 1.155282z m433.51959 103.082666l22.107898 73.544206-80.60718-44.215795c-29.407179 7.351795-58.893128 14.782359-88.169026 14.782359-139.841641 0-249.961026-95.704615-249.961025-213.543385 0-117.628718 110.119385-213.490872 249.961025-213.490872 132.043487 0 249.645949 95.862154 249.645949 213.490872-0.026256 66.349949-43.979487 125.111795-102.977641 169.432615z" fill="#5DE466" p-id="2166"></path><path d="M729.114256 545.030564a31.980308 31.980308 0 1 0 63.908103 0 31.980308 31.980308 0 0 0-63.908103 0z" fill="#5DE466" p-id="2167"></path></svg>